<svg width="756mm" height="1803mm" viewBox="0 0 756 1803" xmlns="http://www.w3.org/2000/svg" version="1.1" preserveAspectRatio="xMidYMid meet"><g id="svgGroup" stroke-linecap="round" fill-rule="evenodd" font-size="9pt" stroke="#000" stroke-width="0.25mm" fill="none" style="stroke:#000;stroke-width:0.25mm;fill:none"><path d="M 0 903 L 0 973.313 L 3 973.313 L 3 1023.938 L 0 1023.938 L 0 1074.563 L 3 1074.563 L 3 1125.188 L 0 1125.188 L 0 1175.813 L 3 1175.813 L 3 1226.438 L 0 1226.438 L 0 1277.063 L 3 1277.063 L 3 1327.688 L 0 1327.688 L 0 1378.313 L 3 1378.313 L 3 1428.938 L 0 1428.938 L 0 1479.563 L 3 1479.563 L 3 1530.188 L 0 1530.188 L 0 1580.813 L 3 1580.813 L 3 1631.438 L 0 1631.438 L 0 1682.063 L 3 1682.063 L 3 1732.688 L 0 1732.688 L 0 1803 L 49.063 1803 L 49.063 1800 L 99.688 1800 L 99.688 1803 L 150.313 1803 L 150.313 1800 L 200.938 1800 L 200.938 1803 L 250 1803 L 250 1732.688 L 247 1732.688 L 247 1682.063 L 250 1682.063 L 250 1631.438 L 247 1631.438 L 247 1580.813 L 250 1580.813 L 250 1530.188 L 247 1530.188 L 247 1479.563 L 250 1479.563 L 250 1428.938 L 247 1428.938 L 247 1378.313 L 250 1378.313 L 250 1327.688 L 247 1327.688 L 247 1277.063 L 250 1277.063 L 250 1226.438 L 247 1226.438 L 247 1175.813 L 250 1175.813 L 250 1125.188 L 247 1125.188 L 247 1074.563 L 250 1074.563 L 250 1023.938 L 247 1023.938 L 247 973.313 L 250 973.313 L 250 903 L 0 903 Z" id="front_outsideCutPath" stroke="#FF0000" stroke-width="0.5" style="stroke:#FF0000;stroke-width:0.5" vector-effect="non-scaling-stroke"/><path d="M 256 903 L 256 973.313 L 253 973.313 L 253 1023.938 L 256 1023.938 L 256 1074.563 L 253 1074.563 L 253 1125.188 L 256 1125.188 L 256 1175.813 L 253 1175.813 L 253 1226.438 L 256 1226.438 L 256 1277.063 L 253 1277.063 L 253 1327.688 L 256 1327.688 L 256 1378.313 L 253 1378.313 L 253 1428.938 L 256 1428.938 L 256 1479.563 L 253 1479.563 L 253 1530.188 L 256 1530.188 L 256 1580.813 L 253 1580.813 L 253 1631.438 L 256 1631.438 L 256 1682.063 L 253 1682.063 L 253 1732.688 L 256 1732.688 L 256 1803 L 302.063 1803 L 302.063 1800 L 352.688 1800 L 352.688 1803 L 403.313 1803 L 403.313 1800 L 453.938 1800 L 453.938 1803 L 500 1803 L 500 1732.688 L 503 1732.688 L 503 1682.063 L 500 1682.063 L 500 1631.438 L 503 1631.438 L 503 1580.813 L 500 1580.813 L 500 1530.188 L 503 1530.188 L 503 1479.563 L 500 1479.563 L 500 1428.938 L 503 1428.938 L 503 1378.313 L 500 1378.313 L 500 1327.688 L 503 1327.688 L 503 1277.063 L 500 1277.063 L 500 1226.438 L 503 1226.438 L 503 1175.813 L 500 1175.813 L 500 1125.188 L 503 1125.188 L 503 1074.563 L 500 1074.563 L 500 1023.938 L 503 1023.938 L 503 973.313 L 500 973.313 L 500 903 L 256 903 Z" id="left_outsideCutPath" stroke="#FF0000" stroke-width="0.5" style="stroke:#FF0000;stroke-width:0.5" vector-effect="non-scaling-stroke"/><path d="M 0 0 L 0 70.313 L 3 70.313 L 3 120.938 L 0 120.938 L 0 171.563 L 3 171.563 L 3 222.188 L 0 222.188 L 0 272.813 L 3 272.813 L 3 323.438 L 0 323.438 L 0 374.063 L 3 374.063 L 3 424.688 L 0 424.688 L 0 475.313 L 3 475.313 L 3 525.938 L 0 525.938 L 0 576.563 L 3 576.563 L 3 627.188 L 0 627.188 L 0 677.813 L 3 677.813 L 3 728.438 L 0 728.438 L 0 779.063 L 3 779.063 L 3 829.688 L 0 829.688 L 0 900 L 49.063 900 L 49.063 897 L 99.688 897 L 99.688 900 L 150.313 900 L 150.313 897 L 200.938 897 L 200.938 900 L 250 900 L 250 829.688 L 247 829.688 L 247 779.063 L 250 779.063 L 250 728.438 L 247 728.438 L 247 677.813 L 250 677.813 L 250 627.188 L 247 627.188 L 247 576.563 L 250 576.563 L 250 525.938 L 247 525.938 L 247 475.313 L 250 475.313 L 250 424.688 L 247 424.688 L 247 374.063 L 250 374.063 L 250 323.438 L 247 323.438 L 247 272.813 L 250 272.813 L 250 222.188 L 247 222.188 L 247 171.563 L 250 171.563 L 250 120.938 L 247 120.938 L 247 70.313 L 250 70.313 L 250 0 L 0 0 Z" id="back_outsideCutPath" stroke="#FF0000" stroke-width="0.5" style="stroke:#FF0000;stroke-width:0.5" vector-effect="non-scaling-stroke"/><path d="M 256 0 L 256 70.313 L 253 70.313 L 253 120.938 L 256 120.938 L 256 171.563 L 253 171.563 L 253 222.188 L 256 222.188 L 256 272.813 L 253 272.813 L 253 323.438 L 256 323.438 L 256 374.063 L 253 374.063 L 253 424.688 L 256 424.688 L 256 475.313 L 253 475.313 L 253 525.938 L 256 525.938 L 256 576.563 L 253 576.563 L 253 627.188 L 256 627.188 L 256 677.813 L 253 677.813 L 253 728.438 L 256 728.438 L 256 779.063 L 253 779.063 L 253 829.688 L 256 829.688 L 256 900 L 302.063 900 L 302.063 897 L 352.688 897 L 352.688 900 L 403.313 900 L 403.313 897 L 453.938 897 L 453.938 900 L 500 900 L 500 829.688 L 503 829.688 L 503 779.063 L 500 779.063 L 500 728.438 L 503 728.438 L 503 677.813 L 500 677.813 L 500 627.188 L 503 627.188 L 503 576.563 L 500 576.563 L 500 525.938 L 503 525.938 L 503 475.313 L 500 475.313 L 500 424.688 L 503 424.688 L 503 374.063 L 500 374.063 L 500 323.438 L 503 323.438 L 503 272.813 L 500 272.813 L 500 222.188 L 503 222.188 L 503 171.563 L 500 171.563 L 500 120.938 L 503 120.938 L 503 70.313 L 500 70.313 L 500 0 L 256 0 Z" id="right_outsideCutPath" stroke="#FF0000" stroke-width="0.5" style="stroke:#FF0000;stroke-width:0.5" vector-effect="non-scaling-stroke"/><path d="M 509 1556 L 509 1602.063 L 506 1602.063 L 506 1652.688 L 509 1652.688 L 509 1703.313 L 506 1703.313 L 506 1753.938 L 509 1753.938 L 509 1800 L 555.063 1800 L 555.063 1803 L 605.688 1803 L 605.688 1800 L 656.313 1800 L 656.313 1803 L 706.938 1803 L 706.938 1800 L 753 1800 L 753 1753.938 L 756 1753.938 L 756 1703.313 L 753 1703.313 L 753 1652.688 L 756 1652.688 L 756 1602.063 L 753 1602.063 L 753 1556 L 706.938 1556 L 706.938 1553 L 656.313 1553 L 656.313 1556 L 605.688 1556 L 605.688 1553 L 555.063 1553 L 555.063 1556 L 509 1556 Z" id="bottom_outsideCutPath" stroke="#FF0000" stroke-width="0.5" style="stroke:#FF0000;stroke-width:0.5" vector-effect="non-scaling-stroke"/></g></svg>