<?xml version="1.0" encoding="UTF-8" standalone="no"?>
<svg
   width="503.49997mm"
   height="900.5mm"
   viewBox="0 0 503.49997 900.5"
   version="1.1"
   preserveAspectRatio="xMidYMid"
   id="svg1"
   sodipodi:docname="box (3).svg"
   xmlns:inkscape="http://www.inkscape.org/namespaces/inkscape"
   xmlns:sodipodi="http://sodipodi.sourceforge.net/DTD/sodipodi-0.dtd"
   xmlns="http://www.w3.org/2000/svg"
   xmlns:svg="http://www.w3.org/2000/svg">
  <defs
     id="defs1" />
  <sodipodi:namedview
     id="namedview1"
     pagecolor="#ffffff"
     bordercolor="#000000"
     borderopacity="0.25"
     inkscape:showpageshadow="2"
     inkscape:pageopacity="0.0"
     inkscape:pagecheckerboard="0"
     inkscape:deskcolor="#d1d1d1"
     inkscape:document-units="mm" />
  <g
     id="svgGroup"
     stroke-linecap="round"
     fill-rule="evenodd"
     font-size="12px"
     stroke="#000"
     stroke-width="0.25mm"
     fill="none"
     style="fill:none;stroke:#000000;stroke-width:0.25mm"
     transform="translate(0.25,-902.75)">
    <path
       d="m 0,903 v 70.313 h 3 v 50.625 H 0 v 50.625 h 3 v 50.625 H 0 v 50.625 h 3 v 50.625 H 0 v 50.625 h 3 v 50.625 H 0 v 50.625 h 3 v 50.625 H 0 v 50.625 h 3 v 50.625 H 0 v 50.625 h 3 v 50.625 H 0 v 50.625 h 3 v 50.625 H 0 V 1803 h 49.063 v -3 h 50.625 v 3 h 50.625 v -3 h 50.625 v 3 H 250 v -70.312 h -3 v -50.625 h 3 v -50.625 h -3 v -50.625 h 3 v -50.625 h -3 v -50.625 h 3 v -50.625 h -3 v -50.625 h 3 v -50.625 h -3 v -50.625 h 3 v -50.625 h -3 v -50.625 h 3 v -50.625 h -3 v -50.625 h 3 v -50.625 h -3 v -50.625 h 3 V 903 Z"
       id="front_outsideCutPath"
       stroke="#FF0000"
       stroke-width="0.5"
       style="stroke:#ff0000;stroke-width:0.5"
       vector-effect="non-scaling-stroke" />
    <g
       id="g1">
      <path
         id="path1"
         style="fill:#000000;stroke:#c50000;stroke-width:0.5;stroke-dasharray:none;stroke-opacity:1"
         d="m 99.901912,199.89271 0.176738,500.30383 h 50.17109 V 199.98056 Z m 0.230478,0.23978 h 50.00005 v 499.99997 h -50.00005 z"
         transform="translate(-0.25,902.75)" />
    </g>
    <path
       d="m 256,903 v 70.313 h -3 v 50.625 h 3 v 50.625 h -3 v 50.625 h 3 v 50.625 h -3 v 50.625 h 3 v 50.625 h -3 v 50.625 h 3 v 50.625 h -3 v 50.625 h 3 v 50.625 h -3 v 50.625 h 3 v 50.625 h -3 v 50.625 h 3 v 50.625 h -3 v 50.625 h 3 V 1803 h 46.063 v -3 h 50.625 v 3 h 50.625 v -3 h 50.625 v 3 H 500 v -70.312 h 3 v -50.625 h -3 v -50.625 h 3 v -50.625 h -3 v -50.625 h 3 v -50.625 h -3 v -50.625 h 3 v -50.625 h -3 v -50.625 h 3 v -50.625 h -3 v -50.625 h 3 v -50.625 h -3 v -50.625 h 3 v -50.625 h -3 v -50.625 h 3 v -50.625 h -3 V 903 Z"
       id="left_outsideCutPath"
       stroke="#FF0000"
       stroke-width="0.5"
       style="stroke:#ff0000;stroke-width:0.5"
       vector-effect="non-scaling-stroke" />
  </g>
</svg>
